<mxfile host="app.diagrams.net" agent="Mozilla/5.0 (X11; Ubuntu; Linux x86_64; rv:133.0) Gecko/20100101 Firefox/133.0" version="25.0.1" pages="4">
  <diagram name="Page-1" id="t5c8IcgWopeicl01Odet">
    <mxGraphModel dx="934" dy="1302" grid="1" gridSize="10" guides="1" tooltips="1" connect="1" arrows="1" fold="1" page="1" pageScale="1" pageWidth="850" pageHeight="1100" math="0" shadow="0">
      <root>
        <mxCell id="0" />
        <mxCell id="1" parent="0" />
        <mxCell id="78aKiTp5_Y_j9f_bEbZp-7" value="" style="rounded=0;whiteSpace=wrap;html=1;fillColor=#dae8fc;strokeColor=#6c8ebf;" vertex="1" parent="1">
          <mxGeometry x="40" y="134" width="750" height="216" as="geometry" />
        </mxCell>
        <mxCell id="78aKiTp5_Y_j9f_bEbZp-5" style="edgeStyle=orthogonalEdgeStyle;rounded=0;orthogonalLoop=1;jettySize=auto;html=1;" edge="1" parent="1" source="78aKiTp5_Y_j9f_bEbZp-1" target="78aKiTp5_Y_j9f_bEbZp-2">
          <mxGeometry relative="1" as="geometry" />
        </mxCell>
        <mxCell id="78aKiTp5_Y_j9f_bEbZp-1" value="Web Application" style="verticalLabelPosition=bottom;aspect=fixed;html=1;shape=mxgraph.salesforce.web;" vertex="1" parent="1">
          <mxGeometry x="120" y="184" width="113.92" height="90" as="geometry" />
        </mxCell>
        <mxCell id="78aKiTp5_Y_j9f_bEbZp-6" style="edgeStyle=orthogonalEdgeStyle;rounded=0;orthogonalLoop=1;jettySize=auto;html=1;" edge="1" parent="1" source="78aKiTp5_Y_j9f_bEbZp-2" target="78aKiTp5_Y_j9f_bEbZp-4">
          <mxGeometry relative="1" as="geometry" />
        </mxCell>
        <mxCell id="78aKiTp5_Y_j9f_bEbZp-2" value="REST API&lt;br&gt;(Spring boot)" style="sketch=0;points=[[0,0,0],[0.25,0,0],[0.5,0,0],[0.75,0,0],[1,0,0],[0,1,0],[0.25,1,0],[0.5,1,0],[0.75,1,0],[1,1,0],[0,0.25,0],[0,0.5,0],[0,0.75,0],[1,0.25,0],[1,0.5,0],[1,0.75,0]];outlineConnect=0;fontColor=#232F3E;fillColor=#E7157B;strokeColor=#ffffff;dashed=0;verticalLabelPosition=bottom;verticalAlign=top;align=center;html=1;fontSize=12;fontStyle=0;aspect=fixed;shape=mxgraph.aws4.resourceIcon;resIcon=mxgraph.aws4.api_gateway;" vertex="1" parent="1">
          <mxGeometry x="370" y="190" width="78" height="78" as="geometry" />
        </mxCell>
        <mxCell id="78aKiTp5_Y_j9f_bEbZp-4" value="" style="shape=image;verticalLabelPosition=bottom;labelBackgroundColor=default;verticalAlign=top;aspect=fixed;imageAspect=0;image=https://karinavarela.me/wp-content/uploads/2020/05/jbpm_logo_600px.png;" vertex="1" parent="1">
          <mxGeometry x="550" y="194" width="150" height="70" as="geometry" />
        </mxCell>
        <mxCell id="78aKiTp5_Y_j9f_bEbZp-8" value="Version 1" style="text;html=1;align=center;verticalAlign=middle;whiteSpace=wrap;rounded=0;fontStyle=1" vertex="1" parent="1">
          <mxGeometry x="40" y="140" width="60" height="30" as="geometry" />
        </mxCell>
        <mxCell id="78aKiTp5_Y_j9f_bEbZp-20" style="edgeStyle=orthogonalEdgeStyle;rounded=0;orthogonalLoop=1;jettySize=auto;html=1;" edge="1" parent="1" source="78aKiTp5_Y_j9f_bEbZp-19" target="78aKiTp5_Y_j9f_bEbZp-4">
          <mxGeometry relative="1" as="geometry" />
        </mxCell>
        <mxCell id="78aKiTp5_Y_j9f_bEbZp-19" value="Business Central" style="rounded=0;whiteSpace=wrap;html=1;" vertex="1" parent="1">
          <mxGeometry x="564" y="20" width="120" height="60" as="geometry" />
        </mxCell>
      </root>
    </mxGraphModel>
  </diagram>
  <diagram id="7_OO1p0TzL7LTwfncjKW" name="Page-2">
    <mxGraphModel dx="794" dy="1107" grid="1" gridSize="10" guides="1" tooltips="1" connect="1" arrows="1" fold="1" page="1" pageScale="1" pageWidth="850" pageHeight="1100" math="0" shadow="0">
      <root>
        <mxCell id="0" />
        <mxCell id="1" parent="0" />
        <mxCell id="Ik4njg5lGmLLdNNI74fb-1" value="" style="rounded=0;whiteSpace=wrap;html=1;fillColor=#dae8fc;strokeColor=#6c8ebf;" vertex="1" parent="1">
          <mxGeometry x="20" y="484" width="750" height="216" as="geometry" />
        </mxCell>
        <mxCell id="Ik4njg5lGmLLdNNI74fb-2" style="edgeStyle=orthogonalEdgeStyle;rounded=0;orthogonalLoop=1;jettySize=auto;html=1;" edge="1" parent="1" source="Ik4njg5lGmLLdNNI74fb-5" target="Ik4njg5lGmLLdNNI74fb-6">
          <mxGeometry relative="1" as="geometry" />
        </mxCell>
        <mxCell id="Ik4njg5lGmLLdNNI74fb-3" style="edgeStyle=orthogonalEdgeStyle;rounded=0;orthogonalLoop=1;jettySize=auto;html=1;" edge="1" parent="1" source="Ik4njg5lGmLLdNNI74fb-6" target="Ik4njg5lGmLLdNNI74fb-7">
          <mxGeometry relative="1" as="geometry" />
        </mxCell>
        <mxCell id="Ik4njg5lGmLLdNNI74fb-4" style="edgeStyle=orthogonalEdgeStyle;rounded=0;orthogonalLoop=1;jettySize=auto;html=1;" edge="1" parent="1" source="Ik4njg5lGmLLdNNI74fb-9" target="Ik4njg5lGmLLdNNI74fb-7">
          <mxGeometry relative="1" as="geometry" />
        </mxCell>
        <mxCell id="Ik4njg5lGmLLdNNI74fb-5" value="Web Application" style="verticalLabelPosition=bottom;aspect=fixed;html=1;shape=mxgraph.salesforce.web;" vertex="1" parent="1">
          <mxGeometry x="100" y="534" width="113.92" height="90" as="geometry" />
        </mxCell>
        <mxCell id="Ik4njg5lGmLLdNNI74fb-6" value="REST API&lt;br&gt;(Spring boot)" style="sketch=0;points=[[0,0,0],[0.25,0,0],[0.5,0,0],[0.75,0,0],[1,0,0],[0,1,0],[0.25,1,0],[0.5,1,0],[0.75,1,0],[1,1,0],[0,0.25,0],[0,0.5,0],[0,0.75,0],[1,0.25,0],[1,0.5,0],[1,0.75,0]];outlineConnect=0;fontColor=#232F3E;fillColor=#E7157B;strokeColor=#ffffff;dashed=0;verticalLabelPosition=bottom;verticalAlign=top;align=center;html=1;fontSize=12;fontStyle=0;aspect=fixed;shape=mxgraph.aws4.resourceIcon;resIcon=mxgraph.aws4.api_gateway;" vertex="1" parent="1">
          <mxGeometry x="350" y="540" width="78" height="78" as="geometry" />
        </mxCell>
        <mxCell id="Ik4njg5lGmLLdNNI74fb-7" value="" style="shape=image;verticalLabelPosition=bottom;labelBackgroundColor=default;verticalAlign=top;aspect=fixed;imageAspect=0;image=https://karinavarela.me/wp-content/uploads/2020/05/jbpm_logo_600px.png;" vertex="1" parent="1">
          <mxGeometry x="530" y="544" width="150" height="70" as="geometry" />
        </mxCell>
        <mxCell id="Ik4njg5lGmLLdNNI74fb-8" value="Version 2" style="text;html=1;align=center;verticalAlign=middle;whiteSpace=wrap;rounded=0;fontStyle=1" vertex="1" parent="1">
          <mxGeometry x="20" y="490" width="60" height="30" as="geometry" />
        </mxCell>
        <mxCell id="Ik4njg5lGmLLdNNI74fb-9" value="Business Central" style="rounded=0;whiteSpace=wrap;html=1;" vertex="1" parent="1">
          <mxGeometry x="544" y="370" width="120" height="60" as="geometry" />
        </mxCell>
        <mxCell id="Ik4njg5lGmLLdNNI74fb-10" value="maven &lt;br&gt;project&lt;br&gt;Business" style="rounded=1;whiteSpace=wrap;html=1;" vertex="1" parent="1">
          <mxGeometry x="328" y="400" width="120" height="60" as="geometry" />
        </mxCell>
        <mxCell id="Ik4njg5lGmLLdNNI74fb-11" value="DÃ©ploiement" style="endArrow=none;dashed=1;html=1;dashPattern=1 3;strokeWidth=2;rounded=0;exitX=1;exitY=0.5;exitDx=0;exitDy=0;" edge="1" parent="1" source="Ik4njg5lGmLLdNNI74fb-10" target="Ik4njg5lGmLLdNNI74fb-7">
          <mxGeometry width="50" height="50" relative="1" as="geometry">
            <mxPoint x="250" y="460" as="sourcePoint" />
            <mxPoint x="300" y="410" as="targetPoint" />
            <Array as="points">
              <mxPoint x="500" y="450" />
            </Array>
          </mxGeometry>
        </mxCell>
      </root>
    </mxGraphModel>
  </diagram>
  <diagram id="n6uCWzHDR0bORqqOdBzO" name="Page-3">
    <mxGraphModel dx="794" dy="1107" grid="1" gridSize="10" guides="1" tooltips="1" connect="1" arrows="1" fold="1" page="1" pageScale="1" pageWidth="850" pageHeight="1100" math="0" shadow="0">
      <root>
        <mxCell id="0" />
        <mxCell id="1" parent="0" />
        <mxCell id="zFmwSXTIQOQxAsFEa0uo-1" value="" style="rounded=0;whiteSpace=wrap;html=1;fillColor=#dae8fc;strokeColor=#6c8ebf;" vertex="1" parent="1">
          <mxGeometry x="50" y="60" width="750" height="280" as="geometry" />
        </mxCell>
        <mxCell id="zFmwSXTIQOQxAsFEa0uo-2" style="edgeStyle=orthogonalEdgeStyle;rounded=0;orthogonalLoop=1;jettySize=auto;html=1;" edge="1" parent="1" source="zFmwSXTIQOQxAsFEa0uo-3" target="zFmwSXTIQOQxAsFEa0uo-6">
          <mxGeometry relative="1" as="geometry" />
        </mxCell>
        <mxCell id="zFmwSXTIQOQxAsFEa0uo-3" value="Web Application" style="verticalLabelPosition=bottom;aspect=fixed;html=1;shape=mxgraph.salesforce.web;" vertex="1" parent="1">
          <mxGeometry x="130" y="110" width="113.92" height="90" as="geometry" />
        </mxCell>
        <mxCell id="zFmwSXTIQOQxAsFEa0uo-4" style="edgeStyle=orthogonalEdgeStyle;rounded=0;orthogonalLoop=1;jettySize=auto;html=1;" edge="1" parent="1" source="zFmwSXTIQOQxAsFEa0uo-6" target="zFmwSXTIQOQxAsFEa0uo-7">
          <mxGeometry relative="1" as="geometry" />
        </mxCell>
        <mxCell id="zFmwSXTIQOQxAsFEa0uo-5" style="edgeStyle=orthogonalEdgeStyle;rounded=0;orthogonalLoop=1;jettySize=auto;html=1;" edge="1" parent="1" source="zFmwSXTIQOQxAsFEa0uo-6" target="zFmwSXTIQOQxAsFEa0uo-9">
          <mxGeometry relative="1" as="geometry">
            <Array as="points">
              <mxPoint x="419" y="280" />
            </Array>
          </mxGeometry>
        </mxCell>
        <mxCell id="zFmwSXTIQOQxAsFEa0uo-6" value="REST API&lt;br&gt;(Spring boot)" style="sketch=0;points=[[0,0,0],[0.25,0,0],[0.5,0,0],[0.75,0,0],[1,0,0],[0,1,0],[0.25,1,0],[0.5,1,0],[0.75,1,0],[1,1,0],[0,0.25,0],[0,0.5,0],[0,0.75,0],[1,0.25,0],[1,0.5,0],[1,0.75,0]];outlineConnect=0;fontColor=#232F3E;fillColor=#E7157B;strokeColor=#ffffff;dashed=0;verticalLabelPosition=bottom;verticalAlign=top;align=center;html=1;fontSize=12;fontStyle=0;aspect=fixed;shape=mxgraph.aws4.resourceIcon;resIcon=mxgraph.aws4.api_gateway;" vertex="1" parent="1">
          <mxGeometry x="380" y="116" width="78" height="78" as="geometry" />
        </mxCell>
        <mxCell id="zFmwSXTIQOQxAsFEa0uo-7" value="" style="shape=image;verticalLabelPosition=bottom;labelBackgroundColor=default;verticalAlign=top;aspect=fixed;imageAspect=0;image=https://karinavarela.me/wp-content/uploads/2020/05/jbpm_logo_600px.png;" vertex="1" parent="1">
          <mxGeometry x="555" y="120" width="150" height="70" as="geometry" />
        </mxCell>
        <mxCell id="zFmwSXTIQOQxAsFEa0uo-8" value="Version 3" style="text;html=1;align=center;verticalAlign=middle;whiteSpace=wrap;rounded=0;fontStyle=1" vertex="1" parent="1">
          <mxGeometry x="50" y="66" width="60" height="30" as="geometry" />
        </mxCell>
        <mxCell id="zFmwSXTIQOQxAsFEa0uo-9" value="" style="sketch=0;outlineConnect=0;fontColor=#232F3E;gradientColor=none;fillColor=#C925D1;strokeColor=none;dashed=0;verticalLabelPosition=bottom;verticalAlign=top;align=center;html=1;fontSize=12;fontStyle=0;aspect=fixed;pointerEvents=1;shape=mxgraph.aws4.rds_mysql_instance;" vertex="1" parent="1">
          <mxGeometry x="590" y="240" width="78" height="78" as="geometry" />
        </mxCell>
        <mxCell id="zFmwSXTIQOQxAsFEa0uo-10" value="" style="endArrow=classic;html=1;rounded=0;" edge="1" parent="1" source="zFmwSXTIQOQxAsFEa0uo-7" target="zFmwSXTIQOQxAsFEa0uo-9">
          <mxGeometry width="50" height="50" relative="1" as="geometry">
            <mxPoint x="390" y="270" as="sourcePoint" />
            <mxPoint x="440" y="220" as="targetPoint" />
          </mxGeometry>
        </mxCell>
        <mxCell id="zFmwSXTIQOQxAsFEa0uo-11" value="signals" style="endArrow=none;dashed=1;html=1;dashPattern=1 3;strokeWidth=2;rounded=0;exitX=1;exitY=0.5;exitDx=0;exitDy=0;exitPerimeter=0;" edge="1" parent="1" source="zFmwSXTIQOQxAsFEa0uo-6" target="zFmwSXTIQOQxAsFEa0uo-7">
          <mxGeometry width="50" height="50" relative="1" as="geometry">
            <mxPoint x="410" y="140" as="sourcePoint" />
            <mxPoint x="460" y="90" as="targetPoint" />
            <Array as="points">
              <mxPoint x="500" y="80" />
            </Array>
          </mxGeometry>
        </mxCell>
      </root>
    </mxGraphModel>
  </diagram>
  <diagram id="vkOWaHX4yFqk0vNLJGlQ" name="Page-4">
    <mxGraphModel dx="794" dy="1107" grid="1" gridSize="10" guides="1" tooltips="1" connect="1" arrows="1" fold="1" page="1" pageScale="1" pageWidth="850" pageHeight="1100" math="0" shadow="0">
      <root>
        <mxCell id="0" />
        <mxCell id="1" parent="0" />
        <mxCell id="RCuBEVGjrxzI4ldNUbc1-1" value="" style="rounded=0;whiteSpace=wrap;html=1;fillColor=#dae8fc;strokeColor=#6c8ebf;" vertex="1" parent="1">
          <mxGeometry x="40" y="150" width="750" height="280" as="geometry" />
        </mxCell>
        <mxCell id="RCuBEVGjrxzI4ldNUbc1-2" style="edgeStyle=orthogonalEdgeStyle;rounded=0;orthogonalLoop=1;jettySize=auto;html=1;" edge="1" parent="1" source="RCuBEVGjrxzI4ldNUbc1-3" target="RCuBEVGjrxzI4ldNUbc1-6">
          <mxGeometry relative="1" as="geometry" />
        </mxCell>
        <mxCell id="RCuBEVGjrxzI4ldNUbc1-3" value="Web Application" style="verticalLabelPosition=bottom;aspect=fixed;html=1;shape=mxgraph.salesforce.web;" vertex="1" parent="1">
          <mxGeometry x="120" y="200" width="113.92" height="90" as="geometry" />
        </mxCell>
        <mxCell id="RCuBEVGjrxzI4ldNUbc1-5" style="edgeStyle=orthogonalEdgeStyle;rounded=0;orthogonalLoop=1;jettySize=auto;html=1;" edge="1" parent="1" source="RCuBEVGjrxzI4ldNUbc1-6" target="RCuBEVGjrxzI4ldNUbc1-9">
          <mxGeometry relative="1" as="geometry">
            <Array as="points">
              <mxPoint x="409" y="370" />
            </Array>
          </mxGeometry>
        </mxCell>
        <mxCell id="RCuBEVGjrxzI4ldNUbc1-6" value="REST API&lt;br&gt;(Spring boot)" style="sketch=0;points=[[0,0,0],[0.25,0,0],[0.5,0,0],[0.75,0,0],[1,0,0],[0,1,0],[0.25,1,0],[0.5,1,0],[0.75,1,0],[1,1,0],[0,0.25,0],[0,0.5,0],[0,0.75,0],[1,0.25,0],[1,0.5,0],[1,0.75,0]];outlineConnect=0;fontColor=#232F3E;fillColor=#E7157B;strokeColor=#ffffff;dashed=0;verticalLabelPosition=bottom;verticalAlign=top;align=center;html=1;fontSize=12;fontStyle=0;aspect=fixed;shape=mxgraph.aws4.resourceIcon;resIcon=mxgraph.aws4.api_gateway;" vertex="1" parent="1">
          <mxGeometry x="360" y="193" width="104" height="104" as="geometry" />
        </mxCell>
        <mxCell id="RCuBEVGjrxzI4ldNUbc1-8" value="Version&amp;nbsp; 4 : Embedded" style="text;html=1;align=center;verticalAlign=middle;whiteSpace=wrap;rounded=0;fontStyle=1" vertex="1" parent="1">
          <mxGeometry x="40" y="156" width="130" height="30" as="geometry" />
        </mxCell>
        <mxCell id="RCuBEVGjrxzI4ldNUbc1-9" value="" style="sketch=0;outlineConnect=0;fontColor=#232F3E;gradientColor=none;fillColor=#C925D1;strokeColor=none;dashed=0;verticalLabelPosition=bottom;verticalAlign=top;align=center;html=1;fontSize=12;fontStyle=0;aspect=fixed;pointerEvents=1;shape=mxgraph.aws4.rds_mysql_instance;" vertex="1" parent="1">
          <mxGeometry x="580" y="330" width="78" height="78" as="geometry" />
        </mxCell>
        <mxCell id="RCuBEVGjrxzI4ldNUbc1-12" value="" style="shape=image;verticalLabelPosition=bottom;labelBackgroundColor=default;verticalAlign=top;aspect=fixed;imageAspect=0;image=https://karinavarela.me/wp-content/uploads/2020/05/jbpm_logo_600px.png;" vertex="1" parent="1">
          <mxGeometry x="300" y="160" width="85.71" height="40" as="geometry" />
        </mxCell>
      </root>
    </mxGraphModel>
  </diagram>
</mxfile>
